<svg xmlns="http://www.w3.org/2000/svg" preserveAspectRatio="xMidYMid" width="172" height="172">
  <rect width="172" height="172" rx="16" fill="#152232"/>
  <path d="M111.322 111.157V41.029c0-4.019-2.217-6.237-6.236-6.237H91.365c-4.019 0-6.237 2.218-6.237 6.237v33.304c0 .938 9.037 5.293 9.273 6.214 6.885 26.902 1.496 48.433-5.031 49.438 10.672.528 11.846 5.659 3.897 2.153 1.216-14.354 5.961-14.326 19.602-.528.117.119 2.797 5.741 2.964 5.741h32.217c4.019 0 6.236-2.217 6.236-6.236v-13.721c0-4.019-2.217-6.237-6.236-6.237z" style="fill:#02a9ff;fill-rule:evenodd"/>
  <path d="M54.365 34.792 18.331 137.351h27.996l6.098-17.74h30.49l5.96 17.74h27.857L80.836 34.792zm4.435 62.09 8.731-28.412 9.563 28.412z" style="fill-rule:evenodd;fill:#fefefe"/>
  <path d="M120.4 54.6V41.44v2.31-.35zm0 4.2q-1.68 0-2.94-1.26t-1.26-2.94V41.44q0-1.68 1.26-2.94t2.94-1.26h42q1.68 0 2.94 1.26t1.26 2.94h-46.2V54.6h30.8v4.2zm0-28.91q-1.68 0-2.94-1.26t-1.26-2.94V12.6q0-1.68 1.26-2.94t2.94-1.26h42q1.68 0 2.94 1.26t1.26 2.94v13.09q0 1.68-1.26 2.94t-2.94 1.26zm0-4.2h42V12.6h-42zm0 0V12.6zm42 38.71v-5.6h-5.6v-4.2h5.6V49h4.2v5.6h5.6v4.2h-5.6v5.6z" fill="#9fadbd"/>
</svg>
